<svg xmlns="http://www.w3.org/2000/svg" viewBox="0 0 64 64"><g fill="#656664"><path d="M16.9 15.4c3.8-3.5 8.7-5.6 14.2-5.9v-7c-7.4.3-14.1 3.2-19.1 8l4.9 4.9zM9.6 31c.2-5.5 2.4-10.4 5.9-14.2l-4.9-4.9c-4.7 5-7.7 11.7-7.9 19.1h6.9zM33.1 2.5v7c5.5.2 10.4 2.4 14.2 5.9l4.9-4.9c-5-4.8-11.7-7.7-19.1-8zM15.5 47.2C12 43.4 9.8 38.5 9.6 33h-7c.2 7.4 3.2 14.1 7.9 19.1l5-4.9zM54.6 33c-.2 5.5-2.4 10.4-5.9 14.2l4.9 4.9c4.7-5 7.7-11.7 7.9-19.1h-6.9zM48.7 16.8c3.5 3.8 5.6 8.7 5.9 14.2h7c-.2-7.4-3.2-14.1-7.9-19.1l-5 4.9zM47.3 48.6c-3.8 3.5-8.7 5.6-14.2 5.9v7c7.4-.2 14.1-3.2 19.1-7.9l-4.9-5zM31.1 54.5c-5.5-.2-10.4-2.4-14.2-5.9L12 53.5c5 4.7 11.7 7.7 19.1 7.9v-6.9z"/></g></svg>